<svg width="208" height="32" viewBox="0 0 208 32" fill="none" xmlns="http://www.w3.org/2000/svg">
<path d="M5.18109 1.23291V8.11488C5.61842 7.64455 6.15747 7.27153 6.79821 6.99581C7.44913 6.72551 8.1153 6.59036 8.78656 6.59036C12.4327 6.59036 14.2532 8.86092 14.2532 13.3966V22.6627L9.71208 22.6789V13.7318C9.71208 12.8074 9.51375 12.11 9.1171 11.6505C8.72045 11.1855 8.16107 10.9585 7.44404 10.9585C6.74227 10.9585 6.19306 11.1909 5.79641 11.6505C5.38959 12.1154 5.18618 12.8074 5.18618 13.7318V22.6681L0.64502 22.7005V1.24913L5.18109 1.23291Z" fill="white"/>
<path d="M22.2154 22.0329C20.9301 21.3119 19.909 20.3271 19.152 19.0733C18.3849 17.8087 18.0039 16.3988 18.0039 14.8382C18.0039 13.6651 18.2274 12.5728 18.6694 11.5611C19.1114 10.5494 19.7261 9.67228 20.4983 8.92968C21.2806 8.17631 22.1747 7.60052 23.1806 7.20231C24.2017 6.8041 25.2482 6.59961 26.3151 6.59961C27.3921 6.59961 28.4437 6.79871 29.4648 7.20231C30.4554 7.58437 31.3495 8.15478 32.1471 8.91353C32.9295 9.67228 33.5442 10.5548 33.976 11.5557C34.418 12.5674 34.6415 13.6598 34.6415 14.8329C34.6415 16.0221 34.423 17.1145 33.9912 18.11C33.5543 19.1109 32.9396 19.9988 32.1471 20.7683C31.3445 21.5271 30.4503 22.1083 29.4648 22.4957C28.4742 22.9047 27.4226 23.1092 26.3151 23.1092C24.8672 23.1146 23.5007 22.754 22.2154 22.0329ZM23.6632 17.6042C24.41 18.3737 25.294 18.7612 26.3151 18.7612C27.3464 18.7612 28.2354 18.3737 28.9822 17.6042C29.7391 16.8347 30.1151 15.9091 30.1151 14.8382C30.1151 14.1387 29.9373 13.4929 29.5918 12.901C29.2413 12.3091 28.7739 11.8409 28.1897 11.4911C27.6105 11.1414 26.9907 10.9638 26.3151 10.9638C25.6648 10.9638 25.045 11.136 24.4557 11.4911C23.8664 11.8463 23.4041 12.3145 23.0536 12.901C22.7031 13.4929 22.5303 14.1387 22.5303 14.8382C22.5303 15.9091 22.9063 16.8347 23.6632 17.6042Z" fill="white"/>
<path d="M44.6605 10.973C43.5074 11.0218 42.9283 11.8834 42.9283 13.5471V22.7003H38.3921V13.5417C38.3921 9.13584 40.4799 6.8218 44.6605 6.59961H44.9145C49.0951 6.8218 51.1828 9.13584 51.1828 13.5417V22.6949H46.6466V13.5417C46.6466 11.878 46.0676 11.0218 44.9145 10.9676H44.6605V10.973Z" fill="white"/>
<path d="M70.2592 11.5552C70.6852 12.5712 70.8983 13.6574 70.8983 14.8139V14.949C70.8983 14.9976 70.8932 15.0517 70.883 15.1165L70.8526 15.3759H69.0977L59.3541 15.4083C59.4657 16.2514 59.8106 16.981 60.3888 17.597C61.1141 18.359 61.9663 18.7427 62.9401 18.7427C63.9241 18.7427 64.7711 18.359 65.4914 17.597L65.5218 17.5646L65.5624 17.5052L65.603 17.4619L65.6334 17.4187L68.068 21.1313C67.3681 21.7366 66.663 22.1905 65.9428 22.504C64.9791 22.9039 63.9799 23.1092 62.9401 23.1092C61.5351 23.1092 60.2265 22.7526 59.0193 22.0392C57.7817 21.3151 56.8028 20.3261 56.0877 19.0669C55.3522 17.8078 54.9819 16.3973 54.9819 14.8247C54.9819 13.6466 55.195 12.5604 55.621 11.566C56.0471 10.5608 56.6304 9.68537 57.376 8.9396C58.1317 8.17762 58.9788 7.59937 59.9273 7.20487C60.9011 6.80497 61.9054 6.59961 62.9452 6.59961C63.985 6.59961 64.9842 6.79956 65.9479 7.20487C66.9014 7.59937 67.7586 8.17221 68.5093 8.92339C69.2447 9.65294 69.8331 10.5284 70.2592 11.5552ZM62.935 10.9553C62.301 10.9553 61.7076 11.1283 61.1496 11.4687C60.8098 11.6903 60.4801 12.0037 60.1606 12.4036H65.7095C65.3899 12.0037 65.0602 11.6903 64.7204 11.4687C64.1625 11.1229 63.569 10.9553 62.935 10.9553Z" fill="white"/>
<path d="M84.1432 22.3763C83.2861 22.7483 82.4898 22.9693 81.7646 23.0394C77.3014 23.5408 75.0699 21.2765 75.0699 16.2518V7.26465H79.5989V15.9176C79.5989 16.8287 79.7967 17.5242 80.1923 17.9932C80.5879 18.4568 81.1458 18.6833 81.8609 18.6833C82.5507 18.6833 83.1035 18.4461 83.5194 17.977C83.915 17.508 84.1128 16.8179 84.1128 15.9176V7.28082L88.6418 7.26465V24.4842C88.6418 26.3496 88.018 27.9562 86.7704 29.2986C86.2023 29.9024 85.4264 30.393 84.4323 30.7758C83.5346 31.1154 82.6318 31.288 81.7291 31.288H80.9785C78.9599 31.2502 77.3369 30.5871 76.1197 29.2986C75.3285 28.436 74.8366 27.6651 74.6489 26.9804L78.7418 24.4357C78.7773 25.1959 79.0563 25.8428 79.5786 26.3604C80.096 26.8833 80.7147 27.1421 81.4349 27.1421C81.9928 27.1421 82.5 26.9696 82.9666 26.6299C83.4027 26.3172 83.7273 25.886 83.9454 25.336L83.9606 25.2929L83.9911 25.2174L84.0215 25.1096L84.0519 25.0072C84.0874 24.9155 84.1128 24.8023 84.1229 24.6621C84.1229 24.6406 84.128 24.619 84.1381 24.5867V24.4357H84.1533V22.3763H84.1432Z" fill="white"/>
<path d="M103.588 11.8847C103.183 11.5237 102.736 11.2543 102.26 11.0712C101.758 10.888 101.231 10.8018 100.673 10.8018C99.6341 10.8018 98.7571 11.1574 98.0424 11.8685C97.3175 12.5796 96.9525 13.4632 96.9525 14.5137C96.9525 15.338 97.1096 16.0707 97.4188 16.7225C97.723 17.3744 98.1691 17.8916 98.7622 18.2741C99.3401 18.6674 100.004 18.8613 100.759 18.8613C101.875 18.8613 102.828 18.4842 103.618 17.7354L106.097 21.0756C105.737 21.4742 105.241 21.8298 104.597 22.1423C103.948 22.4547 103.274 22.6864 102.589 22.8319C101.9 22.9827 101.261 23.0581 100.678 23.0581C99.0359 23.0581 97.5912 22.6918 96.334 21.9591C95.0769 21.2156 94.1188 20.2459 93.4446 19.0391C92.7755 17.8162 92.4409 16.507 92.4409 15.1117C92.4409 13.8403 92.6437 12.6874 93.0492 11.653C93.4649 10.6024 94.0326 9.69737 94.7626 8.94313C95.4774 8.21044 96.3543 7.63399 97.3834 7.21377C98.4023 6.80433 99.5023 6.59961 100.678 6.59961C101.641 6.59961 102.579 6.76123 103.497 7.07909C104.419 7.40772 105.236 7.87642 105.945 8.47981L103.588 11.8847Z" fill="white"/>
<path d="M112.472 22.0329C111.187 21.3119 110.166 20.3271 109.409 19.0733C108.642 17.8087 108.261 16.3988 108.261 14.8382C108.261 13.6651 108.484 12.5728 108.926 11.5611C109.368 10.5494 109.983 9.67228 110.755 8.92968C111.537 8.17631 112.432 7.60052 113.437 7.20231C114.459 6.8041 115.505 6.59961 116.572 6.59961C117.649 6.59961 118.701 6.79871 119.722 7.20231C120.712 7.58437 121.606 8.15478 122.404 8.91353C123.186 9.67228 123.801 10.5548 124.233 11.5557C124.675 12.5674 124.898 13.6598 124.898 14.8329C124.898 16.0221 124.68 17.1145 124.248 18.11C123.811 19.1109 123.196 19.9988 122.404 20.7683C121.601 21.5271 120.707 22.1083 119.722 22.4957C118.731 22.9047 117.679 23.1092 116.572 23.1092C115.124 23.1146 113.757 22.754 112.472 22.0329ZM113.92 17.6042C114.667 18.3737 115.551 18.7612 116.572 18.7612C117.603 18.7612 118.492 18.3737 119.239 17.6042C119.996 16.8347 120.372 15.9091 120.372 14.8382C120.372 14.1387 120.194 13.4929 119.849 12.901C119.498 12.3091 119.031 11.8409 118.447 11.4911C117.867 11.1414 117.248 10.9638 116.572 10.9638C115.922 10.9638 115.302 11.136 114.713 11.4911C114.128 11.8409 113.661 12.3145 113.31 12.901C112.96 13.4929 112.787 14.1387 112.787 14.8382C112.782 15.9091 113.163 16.8347 113.92 17.6042Z" fill="white"/>
<path d="M141.529 13.1742V22.7003H136.98V13.1742C136.904 11.7553 136.335 11.0242 135.264 10.9809H135.01C133.858 11.0188 133.279 11.8745 133.279 13.5371V22.7003H128.745V13.5371C128.745 9.15038 130.832 6.8379 135.01 6.59961H135.264C136.929 6.70251 138.259 7.12493 139.259 7.87229C140.249 7.12493 141.58 6.70251 143.24 6.59961H143.494C147.672 6.84331 149.759 9.1558 149.759 13.5371V22.7003H145.225V13.5371C145.225 11.8745 144.646 11.0242 143.494 10.9809H143.24C142.179 11.0242 141.605 11.7553 141.529 13.1742Z" fill="white"/>
<path d="M153.514 1.19783L158.036 1.18164V7.53838L158.361 7.38728L158.686 7.23619C159.707 6.84227 160.754 6.648 161.82 6.648C162.897 6.648 163.949 6.84227 164.97 7.23619C165.961 7.63011 166.855 8.20751 167.653 8.96838C168.435 9.72384 169.05 10.6034 169.481 11.6071C169.923 12.6216 170.147 13.7116 170.147 14.8772C170.147 16.0698 169.928 17.1652 169.497 18.1635C169.06 19.1564 168.445 20.0414 167.653 20.8131C166.85 21.5847 165.956 22.1621 164.97 22.5452C163.98 22.9554 162.928 23.1604 161.82 23.1604C160.373 23.1604 159.006 22.7989 157.721 22.0758C156.435 21.3635 155.414 20.376 154.657 19.124C153.9 17.8883 153.519 16.5069 153.509 14.9798V1.19783H153.514ZM159.174 17.6509C159.92 18.4225 160.804 18.8111 161.826 18.8111C162.857 18.8111 163.746 18.4225 164.493 17.6509C165.25 16.8792 165.626 15.9511 165.626 14.8772C165.626 14.1757 165.448 13.5336 165.102 12.9508C164.752 12.3572 164.284 11.8877 163.7 11.537C163.121 11.1862 162.501 11.0081 161.826 11.0081C161.175 11.0081 160.555 11.1808 159.966 11.537C159.382 11.8877 158.915 12.3626 158.564 12.9508C158.214 13.5336 158.041 14.1757 158.041 14.8772C158.036 15.9511 158.417 16.8738 159.174 17.6509Z" fill="white"/>
<path d="M174.295 18.9265C174.538 18.5058 174.857 18.1768 175.242 17.9502C175.637 17.7075 176.057 17.5889 176.502 17.5889C176.947 17.5889 177.362 17.7075 177.757 17.9502C178.142 18.2037 178.456 18.5328 178.689 18.9427C178.926 19.3418 179.043 19.7841 179.043 20.2695C179.043 21.0731 178.8 21.7366 178.309 22.2597C177.808 22.7937 177.206 23.058 176.502 23.058C176.031 23.058 175.601 22.9393 175.216 22.6966C174.822 22.4539 174.508 22.1195 174.285 21.688C174.057 21.2457 173.946 20.7765 173.946 20.2749C173.941 19.7733 174.057 19.3256 174.295 18.9265Z" fill="white"/>
<path d="M194.919 22.201C194.615 22.3416 194.396 22.4389 194.254 22.4876C193.253 22.8984 192.201 23.1092 191.104 23.1092C189.656 23.1092 188.29 22.7524 187.004 22.0389C185.719 21.3145 184.698 20.3306 183.941 19.0818C183.174 17.8115 182.793 16.4005 182.793 14.8436C182.793 13.6651 183.017 12.5677 183.458 11.5514C183.9 10.5459 184.515 9.67016 185.287 8.92415C186.054 8.17813 186.943 7.61051 187.954 7.21588C188.965 6.80503 190.017 6.59961 191.104 6.59961C192.181 6.59961 193.233 6.79963 194.254 7.20507C195.275 7.61051 196.164 8.18354 196.921 8.92415C197.713 9.68638 198.328 10.5621 198.765 11.5514C199.207 12.5677 199.431 13.6651 199.431 14.8436L199.415 22.7038L194.919 22.6605V22.201ZM187.838 12.8867C187.487 13.4813 187.314 14.13 187.314 14.8328C187.314 15.8978 187.69 16.8168 188.447 17.5952C189.194 18.3574 190.078 18.7413 191.099 18.7413C192.13 18.7413 193.019 18.3574 193.766 17.5952C194.523 16.8222 194.899 15.8978 194.899 14.8328C194.899 14.13 194.721 13.4813 194.376 12.8867C194.025 12.292 193.558 11.8217 192.974 11.4703C192.395 11.1298 191.775 10.9568 191.099 10.9568C190.449 10.9568 189.829 11.1298 189.24 11.4703C188.656 11.8217 188.188 12.292 187.838 12.8867Z" fill="white"/>
<path d="M207.589 4.15542C207.38 4.52806 207.096 4.83049 206.735 5.06271C206.374 5.29493 205.977 5.40835 205.54 5.40835C205.103 5.40835 204.712 5.30033 204.361 5.07891C204 4.84669 203.715 4.54426 203.507 4.16082C203.288 3.76119 203.182 3.32914 203.182 2.8809C203.182 2.41646 203.283 1.99522 203.492 1.61178C203.72 1.21754 204.01 0.915111 204.356 0.69369C204.702 0.472268 205.098 0.364258 205.535 0.364258C205.972 0.364258 206.369 0.472268 206.73 0.69369C207.081 0.915111 207.365 1.22294 207.584 1.61178C207.792 1.99522 207.894 2.41646 207.894 2.8809C207.899 3.35615 207.797 3.78279 207.589 4.15542ZM207.884 7.24452V22.7008H203.354V7.26072L207.884 7.24452Z" fill="white"/>
</svg>
